<svg width="20" height="20" viewBox="0 0 20 20" fill="none" xmlns="http://www.w3.org/2000/svg">
<path d="M9.99992 10.2084C9.63325 10.2084 9.26659 10.1167 8.93325 9.94169L3.50825 7.01669C3.01659 6.75002 2.70825 6.22502 2.70825 5.64169C2.70825 5.05835 3.01659 4.53335 3.50825 4.26669L8.93325 1.34169C9.59992 0.983354 10.3999 0.983354 11.0583 1.34169L16.4833 4.26669C16.9749 4.53335 17.2833 5.05835 17.2833 5.64169C17.2833 6.22502 16.9749 6.75002 16.4833 7.01669L11.0583 9.94169C10.7333 10.125 10.3666 10.2084 9.99992 10.2084ZM9.99992 2.31669C9.84159 2.31669 9.67492 2.35835 9.52492 2.44169L4.10825 5.35835C3.96659 5.43335 3.95825 5.59169 3.95825 5.64169C3.95825 5.69169 3.96659 5.85002 4.10825 5.91669L9.53325 8.84169C9.83325 9.00002 10.1749 9.00002 10.4749 8.84169L15.8999 5.91669C16.0333 5.84169 16.0499 5.68335 16.0499 5.64169C16.0499 5.59169 16.0416 5.43335 15.8999 5.36669L10.4749 2.44169C10.3249 2.35835 10.1583 2.31669 9.99992 2.31669Z" fill="#0C3D66"/>
<path d="M8.15008 18.9333C7.91675 18.9333 7.67508 18.875 7.45842 18.7666L2.40841 16.25C1.56675 15.825 1.04175 14.975 1.04175 14.0333V9.26664C1.04175 8.72497 1.31675 8.2333 1.77508 7.94997C2.24175 7.66664 2.80008 7.64164 3.28341 7.8833L8.33342 10.4C9.17508 10.825 9.70008 11.6666 9.70008 12.6166V17.3833C9.70008 17.925 9.42508 18.4166 8.96675 18.7C8.71675 18.8583 8.43341 18.9333 8.15008 18.9333ZM2.59175 8.96664C2.52508 8.96664 2.46675 8.99164 2.43341 9.0083C2.38341 9.04164 2.29175 9.11664 2.29175 9.26664V14.0333C2.29175 14.5 2.55008 14.925 2.96675 15.1333L8.00841 17.6583C8.14175 17.725 8.25008 17.675 8.30008 17.65C8.35008 17.6166 8.44175 17.5416 8.44175 17.3916V12.625C8.44175 12.1583 8.18341 11.7333 7.76675 11.525L2.72508 8.99997C2.67508 8.97497 2.63341 8.96664 2.59175 8.96664Z" fill="#0C3D66"/>
<path d="M11.85 18.9333C11.5667 18.9333 11.2834 18.8583 11.0334 18.7C10.575 18.4167 10.3 17.925 10.3 17.3833V12.6167C10.3 11.675 10.825 10.825 11.6667 10.4L16.7084 7.875C17.1917 7.63334 17.7584 7.65834 18.2167 7.94167C18.6751 8.225 18.9501 8.71667 18.9501 9.25834V14.025C18.9501 14.9667 18.4251 15.8167 17.5834 16.2417L12.5417 18.7667C12.325 18.8833 12.0834 18.9333 11.85 18.9333ZM17.4084 8.96667C17.3667 8.96667 17.325 8.975 17.2751 9L12.2334 11.525C11.8167 11.7333 11.5584 12.15 11.5584 12.625V17.3917C11.5584 17.5417 11.65 17.6167 11.7 17.65C11.75 17.6833 11.8584 17.725 11.9917 17.6583L17.0334 15.1333C17.4501 14.925 17.7084 14.5 17.7084 14.0333V9.26667C17.7084 9.11667 17.6167 9.04167 17.5667 9.00834C17.5334 8.99167 17.475 8.96667 17.4084 8.96667Z" fill="#0C3D66"/>
</svg>
