<svg width="20" height="20" viewBox="0 0 20 20" fill="none" xmlns="http://www.w3.org/2000/svg">
<path d="M7.80841 18.9583H3.85008C1.93341 18.9583 1.04175 18.0667 1.04175 16.15V12.1917C1.04175 10.2667 1.93341 9.375 3.85008 9.375H5.83341C6.17508 9.375 6.45841 9.65833 6.45841 10V11.975C6.45841 13.1917 6.80841 13.5417 8.01675 13.5417H10.0001C10.3417 13.5417 10.6251 13.825 10.6251 14.1667V16.15C10.6251 18.0667 9.73341 18.9583 7.80841 18.9583ZM3.85008 10.625C2.64175 10.625 2.29175 10.975 2.29175 12.1917V16.15C2.29175 17.3583 2.64175 17.7083 3.85008 17.7083H7.80841C9.02508 17.7083 9.37508 17.3583 9.37508 16.15V14.7917H8.01675C6.10008 14.7917 5.20841 13.9 5.20841 11.975V10.625H3.85008Z" fill="#0C3D66"/>
<path d="M11.9749 14.7917H8.01659C6.09992 14.7917 5.20825 13.9 5.20825 11.975V8.01671C5.20825 6.10004 6.09992 5.20837 8.01659 5.20837H9.99992C10.3416 5.20837 10.6249 5.49171 10.6249 5.83337V7.80837C10.6249 9.02504 10.9749 9.37504 12.1833 9.37504H14.1666C14.5083 9.37504 14.7916 9.65837 14.7916 10V11.975C14.7916 13.9 13.8999 14.7917 11.9749 14.7917ZM8.01659 6.45837C6.80825 6.45837 6.45825 6.80837 6.45825 8.01671V11.975C6.45825 13.1917 6.80825 13.5417 8.01659 13.5417H11.9749C13.1916 13.5417 13.5416 13.1917 13.5416 11.975V10.625H12.1833C10.2666 10.625 9.37492 9.73337 9.37492 7.80837V6.45837H8.01659Z" fill="#0C3D66"/>
<path d="M16.1417 10.625H12.1833C10.2667 10.625 9.375 9.73329 9.375 7.80829V3.84996C9.375 1.93329 10.2667 1.04163 12.1833 1.04163H16.1417C18.0667 1.04163 18.9583 1.93329 18.9583 3.84996V7.80829C18.9583 9.73329 18.0667 10.625 16.1417 10.625ZM12.1833 2.29163C10.975 2.29163 10.625 2.64163 10.625 3.84996V7.80829C10.625 9.02496 10.975 9.37496 12.1833 9.37496H16.1417C17.3583 9.37496 17.7083 9.02496 17.7083 7.80829V3.84996C17.7083 2.64163 17.3583 2.29163 16.1417 2.29163H12.1833Z" fill="#0C3D66"/>
</svg>
