<svg width="17" height="16" viewBox="0 0 17 16" fill="none" xmlns="http://www.w3.org/2000/svg">
<path d="M10.1199 12.5467C9.99325 12.5467 9.86658 12.5 9.76658 12.4C9.57325 12.2067 9.57325 11.8867 9.76658 11.6933L13.4599 8L9.76658 4.30667C9.57325 4.11334 9.57325 3.79334 9.76658 3.6C9.95992 3.40667 10.2799 3.40667 10.4732 3.6L14.5199 7.64667C14.7132 7.84 14.7132 8.16 14.5199 8.35333L10.4732 12.4C10.3732 12.5 10.2466 12.5467 10.1199 12.5467Z" fill="#7A1809"/>
<path d="M14.0533 8.5H2.83325C2.55992 8.5 2.33325 8.27333 2.33325 8C2.33325 7.72667 2.55992 7.5 2.83325 7.5H14.0533C14.3266 7.5 14.5533 7.72667 14.5533 8C14.5533 8.27333 14.3266 8.5 14.0533 8.5Z" fill="#7A1809"/>
</svg>
