<svg width="20" height="20" viewBox="0 0 20 20" fill="none" xmlns="http://www.w3.org/2000/svg">
<path d="M9.99979 11.0834C9.89146 11.0834 9.78312 11.0584 9.68312 11.0001L2.3248 6.74175C2.0248 6.56675 1.92478 6.18339 2.09978 5.88339C2.27478 5.58339 2.64978 5.48337 2.95811 5.65837L9.99979 9.73339L16.9998 5.6834C17.2998 5.5084 17.6831 5.61675 17.8581 5.90841C18.0331 6.20841 17.9248 6.59172 17.6331 6.76672L10.3248 11.0001C10.2165 11.0501 10.1081 11.0834 9.99979 11.0834Z" fill="#0C3D66"/>
<path d="M10 18.6334C9.65833 18.6334 9.375 18.3501 9.375 18.0084V10.4501C9.375 10.1084 9.65833 9.82507 10 9.82507C10.3417 9.82507 10.625 10.1084 10.625 10.4501V18.0084C10.625 18.3501 10.3417 18.6334 10 18.6334Z" fill="#0C3D66"/>
<path d="M10 18.9583C9.26669 18.9583 8.54168 18.7999 7.96668 18.4833L3.51669 16.0083C2.30835 15.3416 1.3667 13.7333 1.3667 12.35V7.64161C1.3667 6.25827 2.30835 4.65831 3.51669 3.98331L7.96668 1.51663C9.10835 0.883293 10.8917 0.883293 12.0334 1.51663L16.4834 3.9916C17.6917 4.65827 18.6333 6.26661 18.6333 7.64995V12.3583C18.6333 13.7416 17.6917 15.3416 16.4834 16.0166L12.0334 18.4833C11.4584 18.7999 10.7334 18.9583 10 18.9583ZM10 2.29162C9.47502 2.29162 8.95836 2.39996 8.57503 2.60829L4.12503 5.08327C3.32503 5.53327 2.6167 6.72495 2.6167 7.64995V12.3583C2.6167 13.275 3.32503 14.4749 4.12503 14.9249L8.57503 17.4C9.33336 17.825 10.6667 17.825 11.425 17.4L15.875 14.9249C16.675 14.4749 17.3833 13.2833 17.3833 12.3583V7.64995C17.3833 6.73328 16.675 5.53327 15.875 5.08327L11.425 2.60829C11.0417 2.39996 10.525 2.29162 10 2.29162Z" fill="#0C3D66"/>
<path d="M14.1667 11.6583C13.8251 11.6583 13.5417 11.375 13.5417 11.0333V8.35002L5.94174 3.96668C5.64174 3.79168 5.54172 3.40833 5.71672 3.11667C5.89172 2.81667 6.26674 2.71665 6.56674 2.89165L14.4751 7.45835C14.6667 7.56668 14.7917 7.77499 14.7917 7.99999V11.05C14.7917 11.375 14.5084 11.6583 14.1667 11.6583Z" fill="#0C3D66"/>
</svg>
