<svg width="20" height="20" viewBox="0 0 20 20" fill="none" xmlns="http://www.w3.org/2000/svg">
<path d="M6.66699 4.79169C6.32533 4.79169 6.04199 4.50835 6.04199 4.16669V1.66669C6.04199 1.32502 6.32533 1.04169 6.66699 1.04169C7.00866 1.04169 7.29199 1.32502 7.29199 1.66669V4.16669C7.29199 4.50835 7.00866 4.79169 6.66699 4.79169Z" fill="#57534E"/>
<path d="M13.333 4.79169C12.9913 4.79169 12.708 4.50835 12.708 4.16669V1.66669C12.708 1.32502 12.9913 1.04169 13.333 1.04169C13.6747 1.04169 13.958 1.32502 13.958 1.66669V4.16669C13.958 4.50835 13.6747 4.79169 13.333 4.79169Z" fill="#57534E"/>
<path d="M12.5 18.9584H7.5C2.81667 18.9584 1.875 16.75 1.875 13.1834V8.04169C1.875 4.09169 3.20833 2.48335 6.63333 2.29169H13.3333C13.3417 2.29169 13.3583 2.29169 13.3667 2.29169C16.7917 2.48335 18.125 4.09169 18.125 8.04169V13.1834C18.125 16.75 17.1833 18.9584 12.5 18.9584ZM6.66667 3.54169C4.33333 3.67502 3.125 4.40835 3.125 8.04169V13.1834C3.125 16.375 3.73333 17.7084 7.5 17.7084H12.5C16.2667 17.7084 16.875 16.375 16.875 13.1834V8.04169C16.875 4.41669 15.675 3.67502 13.3167 3.54169H6.66667Z" fill="#57534E"/>
<path d="M17.2913 15.2917H2.70801C2.36634 15.2917 2.08301 15.0084 2.08301 14.6667C2.08301 14.325 2.36634 14.0417 2.70801 14.0417H17.2913C17.633 14.0417 17.9163 14.325 17.9163 14.6667C17.9163 15.0084 17.633 15.2917 17.2913 15.2917Z" fill="#57534E"/>
<path d="M10.0003 6.875C8.97533 6.875 8.10866 7.43333 8.10866 8.51667C8.10866 9.03333 8.35033 9.425 8.71699 9.675C8.20866 9.975 7.91699 10.4583 7.91699 11.025C7.91699 12.0583 8.70866 12.7 10.0003 12.7C11.2837 12.7 12.0837 12.0583 12.0837 11.025C12.0837 10.4583 11.792 9.96667 11.2753 9.675C11.6503 9.41667 11.8837 9.03333 11.8837 8.51667C11.8837 7.43333 11.0253 6.875 10.0003 6.875ZM10.0003 9.24167C9.56699 9.24167 9.25033 8.98333 9.25033 8.575C9.25033 8.15833 9.56699 7.91667 10.0003 7.91667C10.4337 7.91667 10.7503 8.15833 10.7503 8.575C10.7503 8.98333 10.4337 9.24167 10.0003 9.24167ZM10.0003 11.6667C9.45033 11.6667 9.05033 11.3917 9.05033 10.8917C9.05033 10.3917 9.45033 10.125 10.0003 10.125C10.5503 10.125 10.9503 10.4 10.9503 10.8917C10.9503 11.3917 10.5503 11.6667 10.0003 11.6667Z" fill="#57534E"/>
</svg>
