<svg width="20" height="20" viewBox="0 0 20 20" fill="none" xmlns="http://www.w3.org/2000/svg">
<path d="M12.5003 10.7917H6.66699C6.32533 10.7917 6.04199 10.5084 6.04199 10.1667C6.04199 9.82502 6.32533 9.54169 6.66699 9.54169H12.5003C12.842 9.54169 13.1253 9.82502 13.1253 10.1667C13.1253 10.5084 12.842 10.7917 12.5003 10.7917Z" fill="#57534E"/>
<path d="M10.317 14.125H6.66699C6.32533 14.125 6.04199 13.8417 6.04199 13.5C6.04199 13.1583 6.32533 12.875 6.66699 12.875H10.317C10.6587 12.875 10.942 13.1583 10.942 13.5C10.942 13.8417 10.6587 14.125 10.317 14.125Z" fill="#57534E"/>
<path d="M11.667 5.62502H8.33366C7.53366 5.62502 6.04199 5.62502 6.04199 3.33335C6.04199 1.04169 7.53366 1.04169 8.33366 1.04169H11.667C12.467 1.04169 13.9587 1.04169 13.9587 3.33335C13.9587 4.13335 13.9587 5.62502 11.667 5.62502ZM8.33366 2.29169C7.50866 2.29169 7.29199 2.29169 7.29199 3.33335C7.29199 4.37502 7.50866 4.37502 8.33366 4.37502H11.667C12.7087 4.37502 12.7087 4.15835 12.7087 3.33335C12.7087 2.29169 12.492 2.29169 11.667 2.29169H8.33366Z" fill="#57534E"/>
<path d="M12.5 18.9583H7.5C2.81667 18.9583 1.875 16.8083 1.875 13.3333V8.33332C1.875 4.53332 3.25 2.90832 6.63333 2.73332C6.96667 2.71665 7.275 2.97498 7.29167 3.32498C7.30833 3.67498 7.04167 3.95832 6.7 3.97498C4.33333 4.10832 3.125 4.81665 3.125 8.33332V13.3333C3.125 16.4166 3.73333 17.7083 7.5 17.7083H12.5C16.2667 17.7083 16.875 16.4166 16.875 13.3333V8.33332C16.875 4.81665 15.6667 4.10832 13.3 3.97498C12.9583 3.95832 12.6917 3.65832 12.7083 3.31665C12.725 2.97498 13.025 2.70832 13.3667 2.72498C16.75 2.90832 18.125 4.53332 18.125 8.32498V13.325C18.125 16.8083 17.1833 18.9583 12.5 18.9583Z" fill="#57534E"/>
</svg>
