<svg width="16" height="16" viewBox="0 0 16 16" fill="none" xmlns="http://www.w3.org/2000/svg">
<path d="M2.93153 3.03587L2.97994 2.97979C3.15746 2.80228 3.43523 2.78614 3.63097 2.93138L3.68705 2.97979L8.00016 7.29268L12.3133 2.97979C12.5086 2.78453 12.8251 2.78453 13.0204 2.97979C13.2156 3.17505 13.2156 3.49164 13.0204 3.6869L8.7075 8.00001L13.0204 12.3131C13.1979 12.4906 13.214 12.7684 13.0688 12.9641L13.0204 13.0202C12.8429 13.1977 12.5651 13.2139 12.3694 13.0686L12.3133 13.0202L8.00016 8.70734L3.68705 13.0202C3.49179 13.2155 3.1752 13.2155 2.97994 13.0202C2.78468 12.8249 2.78468 12.5084 2.97994 12.3131L7.29283 8.00001L2.97994 3.6869C2.80243 3.50938 2.7863 3.23161 2.93153 3.03587L2.97994 2.97979L2.93153 3.03587Z" fill="#141210"/>
</svg>
