<svg width="20" height="20" viewBox="0 0 20 20" fill="none" xmlns="http://www.w3.org/2000/svg">
<path d="M6.89199 18.9583H3.52533C1.85033 18.9583 1.04199 18.1833 1.04199 16.5833V3.41666C1.04199 1.81666 1.85866 1.04166 3.52533 1.04166H6.89199C8.56699 1.04166 9.37533 1.81666 9.37533 3.41666V16.5833C9.37533 18.1833 8.55866 18.9583 6.89199 18.9583ZM3.52533 2.29166C2.46699 2.29166 2.29199 2.57499 2.29199 3.41666V16.5833C2.29199 17.425 2.46699 17.7083 3.52533 17.7083H6.89199C7.95033 17.7083 8.12533 17.425 8.12533 16.5833V3.41666C8.12533 2.57499 7.95033 2.29166 6.89199 2.29166H3.52533V2.29166Z" fill="#57534E"/>
<path d="M16.475 9.37499H13.1083C11.4333 9.37499 10.625 8.63332 10.625 7.09999V3.31666C10.625 1.78332 11.4417 1.04166 13.1083 1.04166H16.475C18.15 1.04166 18.9583 1.78332 18.9583 3.31666V7.09166C18.9583 8.63332 18.1417 9.37499 16.475 9.37499ZM13.1083 2.29166C11.9917 2.29166 11.875 2.60832 11.875 3.31666V7.09166C11.875 7.80832 11.9917 8.11666 13.1083 8.11666H16.475C17.5917 8.11666 17.7083 7.79999 17.7083 7.09166V3.31666C17.7083 2.59999 17.5917 2.29166 16.475 2.29166H13.1083Z" fill="#57534E"/>
<path d="M16.475 18.9583H13.1083C11.4333 18.9583 10.625 18.1417 10.625 16.475V13.1083C10.625 11.4333 11.4417 10.625 13.1083 10.625H16.475C18.15 10.625 18.9583 11.4417 18.9583 13.1083V16.475C18.9583 18.1417 18.1417 18.9583 16.475 18.9583ZM13.1083 11.875C12.125 11.875 11.875 12.125 11.875 13.1083V16.475C11.875 17.4583 12.125 17.7083 13.1083 17.7083H16.475C17.4583 17.7083 17.7083 17.4583 17.7083 16.475V13.1083C17.7083 12.125 17.4583 11.875 16.475 11.875H13.1083Z" fill="#57534E"/>
</svg>
