<svg width="20" height="20" viewBox="0 0 20 20" fill="none" xmlns="http://www.w3.org/2000/svg">
<path d="M12.5003 18.9583H7.50033C2.97533 18.9583 1.04199 17.025 1.04199 12.5V7.49999C1.04199 2.97499 2.97533 1.04166 7.50033 1.04166H12.5003C17.0253 1.04166 18.9587 2.97499 18.9587 7.49999V12.5C18.9587 17.025 17.0253 18.9583 12.5003 18.9583ZM7.50033 2.29166C3.65866 2.29166 2.29199 3.65832 2.29199 7.49999V12.5C2.29199 16.3417 3.65866 17.7083 7.50033 17.7083H12.5003C16.342 17.7083 17.7087 16.3417 17.7087 12.5V7.49999C17.7087 3.65832 16.342 2.29166 12.5003 2.29166H7.50033Z" fill="#57534E"/>
<path d="M7.49967 8.95833C6.23301 8.95833 5.20801 7.93333 5.20801 6.66667C5.20801 5.4 6.23301 4.375 7.49967 4.375C8.76634 4.375 9.79134 5.4 9.79134 6.66667C9.79134 7.93333 8.76634 8.95833 7.49967 8.95833ZM7.49967 5.625C6.92467 5.625 6.45801 6.09167 6.45801 6.66667C6.45801 7.24167 6.92467 7.70833 7.49967 7.70833C8.07467 7.70833 8.54134 7.24167 8.54134 6.66667C8.54134 6.09167 8.07467 5.625 7.49967 5.625Z" fill="#57534E"/>
<path d="M2.22497 16.4167C2.02497 16.4167 1.82497 16.3167 1.70831 16.1417C1.51664 15.8583 1.59164 15.4667 1.88331 15.275L5.99164 12.5167C6.89164 11.9083 8.13331 11.9833 8.94997 12.675L9.22497 12.9167C9.64164 13.275 10.35 13.275 10.7583 12.9167L14.225 9.94167C15.1083 9.18334 16.5 9.18334 17.3916 9.94167L18.75 11.1083C19.0083 11.3333 19.0416 11.725 18.8166 11.9917C18.5916 12.25 18.2 12.2833 17.9333 12.0583L16.575 10.8917C16.1583 10.5333 15.45 10.5333 15.0333 10.8917L11.5666 13.8667C10.6833 14.625 9.29164 14.625 8.39997 13.8667L8.12497 13.625C7.74164 13.3 7.10831 13.2667 6.68331 13.5583L2.57497 16.3167C2.46664 16.3833 2.34164 16.4167 2.22497 16.4167Z" fill="#57534E"/>
</svg>
