<svg width="20" height="20" viewBox="0 0 20 20" fill="none" xmlns="http://www.w3.org/2000/svg">
<path d="M13.3086 18.9583H6.64193C3.79193 18.9583 2.68359 17.85 2.68359 15V8.33333C2.68359 7.99166 2.96693 7.70833 3.30859 7.70833H16.6419C16.9836 7.70833 17.2669 7.99166 17.2669 8.33333V15C17.2669 17.85 16.1586 18.9583 13.3086 18.9583ZM3.93359 8.95833V15C3.93359 17.15 4.49193 17.7083 6.64193 17.7083H13.3086C15.4586 17.7083 16.0169 17.15 16.0169 15V8.95833H3.93359Z" fill="#57534E"/>
<path d="M16.2497 8.95832H3.74967C2.29134 8.95832 1.45801 8.12499 1.45801 6.66666V5.83332C1.45801 4.37499 2.29134 3.54166 3.74967 3.54166H16.2497C17.6663 3.54166 18.5413 4.41666 18.5413 5.83332V6.66666C18.5413 8.08332 17.6663 8.95832 16.2497 8.95832ZM3.74967 4.79166C2.99134 4.79166 2.70801 5.07499 2.70801 5.83332V6.66666C2.70801 7.42499 2.99134 7.70832 3.74967 7.70832H16.2497C16.983 7.70832 17.2913 7.39999 17.2913 6.66666V5.83332C17.2913 5.09999 16.983 4.79166 16.2497 4.79166H3.74967Z" fill="#57534E"/>
<path d="M9.69992 4.79167H5.09992C4.92492 4.79167 4.75825 4.71667 4.64158 4.59167C4.13325 4.03334 4.14992 3.175 4.68325 2.64167L5.86658 1.45834C6.41658 0.908337 7.32492 0.908337 7.87492 1.45834L10.1416 3.725C10.3166 3.9 10.3749 4.175 10.2749 4.40834C10.1832 4.64167 9.95825 4.79167 9.69992 4.79167ZM5.55825 3.54167H8.19992L6.99158 2.34167C6.92492 2.275 6.81658 2.275 6.74992 2.34167L5.56658 3.525C5.56658 3.53334 5.55825 3.53334 5.55825 3.54167Z" fill="#57534E"/>
<path d="M14.8917 4.79167H10.2917C10.0417 4.79167 9.80841 4.64167 9.71674 4.40834C9.61674 4.175 9.67507 3.90834 9.85007 3.725L12.1167 1.45834C12.6667 0.908337 13.5751 0.908337 14.1251 1.45834L15.3084 2.64167C15.8417 3.175 15.8667 4.03334 15.3501 4.59167C15.2334 4.71667 15.0667 4.79167 14.8917 4.79167ZM11.8084 3.54167H14.4501C14.4417 3.53334 14.4417 3.53334 14.4334 3.525L13.2501 2.34167C13.1834 2.275 13.0751 2.275 13.0084 2.34167L11.8084 3.54167Z" fill="#57534E"/>
<path d="M8.28353 14.0833C8.0502 14.0833 7.80853 14.025 7.59186 13.9083C7.11686 13.65 6.8252 13.1583 6.8252 12.625V8.33333C6.8252 7.99166 7.10853 7.70833 7.4502 7.70833H12.4835C12.8252 7.70833 13.1085 7.99166 13.1085 8.33333V12.6083C13.1085 13.15 12.8169 13.6417 12.3419 13.8917C11.8669 14.15 11.2919 14.1167 10.8419 13.8167L10.1002 13.3167C10.0335 13.2667 9.94186 13.2667 9.86686 13.3167L9.08353 13.8333C8.84186 14 8.55853 14.0833 8.28353 14.0833ZM8.0752 8.95833V12.6167C8.0752 12.725 8.14186 12.775 8.18353 12.8C8.2252 12.825 8.30853 12.85 8.4002 12.7917L9.18353 12.275C9.6752 11.95 10.3085 11.95 10.7919 12.275L11.5335 12.775C11.6252 12.8333 11.7085 12.8083 11.7502 12.7833C11.7919 12.7583 11.8585 12.7083 11.8585 12.6V8.94999H8.0752V8.95833Z" fill="#57534E"/>
</svg>
