<svg width="20" height="20" viewBox="0 0 20 20" fill="none" xmlns="http://www.w3.org/2000/svg">
<path d="M10.0003 18.0417C9.81699 18.0417 9.54199 18.025 9.28366 17.9333C6.10033 16.8417 1.04199 12.975 1.04199 7.24167C1.04199 4.325 3.40033 1.95831 6.30033 1.95831C7.70866 1.95831 9.02533 2.50834 10.0003 3.49167C10.9753 2.50834 12.292 1.95831 13.7003 1.95831C16.6003 1.95831 18.9587 4.325 18.9587 7.24167C18.9587 8.25 18.8087 9.24165 18.5087 10.1917C18.4087 10.5167 18.0503 10.7083 17.7253 10.6C17.392 10.5 17.217 10.1417 17.317 9.81669C17.5753 8.99169 17.7087 8.12501 17.7087 7.25001C17.7087 5.02501 15.9087 3.21665 13.7003 3.21665C12.4337 3.21665 11.2587 3.80831 10.5003 4.82498C10.267 5.14165 9.73366 5.14165 9.50033 4.82498C8.73366 3.79998 7.56699 3.21665 6.30033 3.21665C4.09199 3.21665 2.29199 5.02501 2.29199 7.25001C2.29199 12.95 7.76699 16.1083 9.69199 16.7667C9.74199 16.7833 9.85866 16.8083 10.0003 16.8083C10.342 16.8083 10.6253 17.0917 10.6253 17.4333C10.6253 17.775 10.342 18.0417 10.0003 18.0417Z" fill="#57534E"/>
<path d="M13.1833 18.9584C12.8666 18.9584 12.5666 18.8417 12.35 18.6251C12.0916 18.3667 11.975 17.9917 12.0333 17.6001L12.1916 16.4751C12.2333 16.1834 12.4083 15.8334 12.6166 15.6251L15.5666 12.6751C15.9666 12.2751 16.3583 12.0667 16.7833 12.0251C17.3083 11.9751 17.8166 12.1918 18.3 12.6751C18.7833 13.1584 19 13.6668 18.95 14.1918C18.9083 14.6084 18.6916 15.0084 18.3 15.4084L15.35 18.3584C15.1416 18.5668 14.8 18.7417 14.5083 18.7834L13.3833 18.9417C13.3083 18.9501 13.25 18.9584 13.1833 18.9584ZM16.925 13.2667C16.9166 13.2667 16.9083 13.2667 16.9 13.2667C16.7833 13.2751 16.625 13.3751 16.45 13.5584L13.5 16.5084C13.475 16.5334 13.4333 16.6167 13.4333 16.6501L13.2833 17.6917L14.325 17.5417C14.3583 17.5334 14.4416 17.4918 14.4666 17.4668L17.4166 14.5167C17.5916 14.3417 17.7 14.1834 17.7083 14.0667C17.725 13.9001 17.5583 13.7001 17.4166 13.5584C17.2833 13.4251 17.0916 13.2667 16.925 13.2667Z" fill="#57534E"/>
<path d="M17.4338 16.0168C17.3755 16.0168 17.3172 16.0084 17.2672 15.9918C16.1672 15.6834 15.2922 14.8085 14.9838 13.7085C14.8922 13.3751 15.0838 13.0335 15.4172 12.9418C15.7505 12.8501 16.0922 13.0418 16.1922 13.3751C16.3838 14.0584 16.9255 14.6001 17.6088 14.7918C17.9422 14.8834 18.1338 15.2334 18.0422 15.5584C17.9588 15.8334 17.7088 16.0168 17.4338 16.0168Z" fill="#57534E"/>
</svg>
