<svg width="20" height="20" viewBox="0 0 20 20" fill="none" xmlns="http://www.w3.org/2000/svg">
<path d="M14.8253 18.9583H5.17533C2.89199 18.9583 1.04199 17.1 1.04199 14.8167V8.64166C1.04199 7.50833 1.74199 6.08333 2.64199 5.38333L7.13366 1.88333C8.48366 0.833332 10.642 0.783332 12.042 1.76667L17.192 5.375C18.1837 6.06666 18.9587 7.55 18.9587 8.75833V14.825C18.9587 17.1 17.1087 18.9583 14.8253 18.9583ZM7.90033 2.86667L3.40866 6.36666C2.81699 6.83333 2.29199 7.89166 2.29199 8.64166V14.8167C2.29199 16.4083 3.58366 17.7083 5.17533 17.7083H14.8253C16.417 17.7083 17.7087 16.4167 17.7087 14.825V8.75833C17.7087 7.95833 17.1337 6.85 16.4753 6.4L11.3253 2.79167C10.3753 2.125 8.80866 2.15833 7.90033 2.86667Z" fill="#2E4210"/>
<path d="M10 15.625C9.65833 15.625 9.375 15.3417 9.375 15V12.5C9.375 12.1583 9.65833 11.875 10 11.875C10.3417 11.875 10.625 12.1583 10.625 12.5V15C10.625 15.3417 10.3417 15.625 10 15.625Z" fill="#2E4210"/>
</svg>
