<svg width="20" height="20" viewBox="0 0 20 20" fill="none" xmlns="http://www.w3.org/2000/svg">
<path d="M12.5001 18.9582H7.50008C2.97508 18.9582 1.04175 17.0248 1.04175 12.4998V7.49984C1.04175 2.97484 2.97508 1.0415 7.50008 1.0415H12.5001C17.0251 1.0415 18.9584 2.97484 18.9584 7.49984V12.4998C18.9584 17.0248 17.0251 18.9582 12.5001 18.9582ZM7.50008 2.2915C3.65841 2.2915 2.29175 3.65817 2.29175 7.49984V12.4998C2.29175 16.3415 3.65841 17.7082 7.50008 17.7082H12.5001C16.3417 17.7082 17.7084 16.3415 17.7084 12.4998V7.49984C17.7084 3.65817 16.3417 2.2915 12.5001 2.2915H7.50008Z" fill="#292524"/>
<path d="M9.99992 13.5418C8.04992 13.5418 6.45825 11.9502 6.45825 10.0002C6.45825 8.05016 8.04992 6.4585 9.99992 6.4585C11.9499 6.4585 13.5416 8.05016 13.5416 10.0002C13.5416 11.9502 11.9499 13.5418 9.99992 13.5418ZM9.99992 7.7085C8.73325 7.7085 7.70825 8.7335 7.70825 10.0002C7.70825 11.2668 8.73325 12.2918 9.99992 12.2918C11.2666 12.2918 12.2916 11.2668 12.2916 10.0002C12.2916 8.7335 11.2666 7.7085 9.99992 7.7085Z" fill="#292524"/>
<path d="M14.1666 6.24992C14.0583 6.24992 13.9499 6.22492 13.8499 6.18325C13.7499 6.14159 13.6583 6.08325 13.5749 6.00825C13.4999 5.92492 13.4333 5.83325 13.3916 5.73325C13.3499 5.63325 13.3333 5.52492 13.3333 5.41659C13.3333 5.30825 13.3499 5.19992 13.3916 5.09992C13.4416 4.99159 13.4999 4.90825 13.5749 4.82492C13.6166 4.79159 13.6583 4.74992 13.6999 4.72492C13.7499 4.69159 13.7999 4.66659 13.8499 4.64992C13.8999 4.62492 13.9499 4.60825 14.0083 4.59992C14.2749 4.54159 14.5583 4.63325 14.7583 4.82492C14.8333 4.90825 14.8916 4.99159 14.9333 5.09992C14.9749 5.19992 14.9999 5.30825 14.9999 5.41659C14.9999 5.52492 14.9749 5.63325 14.9333 5.73325C14.8916 5.83325 14.8333 5.92492 14.7583 6.00825C14.6749 6.08325 14.5833 6.14159 14.4833 6.18325C14.3833 6.22492 14.2749 6.24992 14.1666 6.24992Z" fill="#292524"/>
</svg>
