<svg width="20" height="20" viewBox="0 0 20 20" fill="none" xmlns="http://www.w3.org/2000/svg">
<path d="M10.0003 19.0083C9.42533 19.0083 8.88366 18.7167 8.50033 18.2083L7.25033 16.5417C7.22533 16.5083 7.12533 16.4667 7.08366 16.4583H6.66699C3.19199 16.4583 1.04199 15.5167 1.04199 10.8333V6.66666C1.04199 2.98332 2.98366 1.04166 6.66699 1.04166H13.3337C17.017 1.04166 18.9587 2.98332 18.9587 6.66666V10.8333C18.9587 14.5167 17.017 16.4583 13.3337 16.4583H12.917C12.8503 16.4583 12.792 16.4917 12.7503 16.5417L11.5003 18.2083C11.117 18.7167 10.5753 19.0083 10.0003 19.0083ZM6.66699 2.29166C3.68366 2.29166 2.29199 3.68332 2.29199 6.66666V10.8333C2.29199 14.6 3.58366 15.2083 6.66699 15.2083H7.08366C7.50866 15.2083 7.99199 15.45 8.25033 15.7917L9.50033 17.4583C9.79199 17.8417 10.2087 17.8417 10.5003 17.4583L11.7503 15.7917C12.0253 15.425 12.4587 15.2083 12.917 15.2083H13.3337C16.317 15.2083 17.7087 13.8167 17.7087 10.8333V6.66666C17.7087 3.68332 16.317 2.29166 13.3337 2.29166H6.66699Z" fill="#57534E"/>
<path d="M14.1663 7.29166H5.83301C5.49134 7.29166 5.20801 7.00832 5.20801 6.66666C5.20801 6.32499 5.49134 6.04166 5.83301 6.04166H14.1663C14.508 6.04166 14.7913 6.32499 14.7913 6.66666C14.7913 7.00832 14.508 7.29166 14.1663 7.29166Z" fill="#57534E"/>
<path d="M10.833 11.4583H5.83301C5.49134 11.4583 5.20801 11.175 5.20801 10.8333C5.20801 10.4917 5.49134 10.2083 5.83301 10.2083H10.833C11.1747 10.2083 11.458 10.4917 11.458 10.8333C11.458 11.175 11.1747 11.4583 10.833 11.4583Z" fill="#57534E"/>
</svg>
