<svg width="20" height="20" viewBox="0 0 20 20" fill="none" xmlns="http://www.w3.org/2000/svg">
<path d="M8.32532 18.9833C7.82532 18.9833 7.35032 18.7333 7.02532 18.2917L6.02533 16.9583C6.02533 16.9667 5.98366 16.9417 5.967 16.9417H5.65867C2.80867 16.9417 1.04199 16.1667 1.04199 12.325V8.99167C1.04199 5.48334 3.18367 4.56667 4.98367 4.40834C5.18367 4.38334 5.417 4.375 5.65867 4.375H10.992C14.0087 4.375 15.6087 5.97501 15.6087 8.99167V12.325C15.6087 12.5667 15.6003 12.8 15.567 13.025C15.417 14.8 14.5003 16.9417 10.992 16.9417H10.6587L9.62532 18.2917C9.30032 18.7333 8.82532 18.9833 8.32532 18.9833ZM5.65867 5.625C5.467 5.625 5.28366 5.63333 5.10866 5.65C3.17533 5.81667 2.29199 6.87501 2.29199 8.99167V12.325C2.29199 15.1833 3.17533 15.6917 5.65867 15.6917H5.99199C6.36699 15.6917 6.79199 15.9 7.02532 16.2L8.02533 17.5417C8.20866 17.7917 8.442 17.7917 8.62533 17.5417L9.62532 16.2083C9.86698 15.8833 10.2503 15.6917 10.6587 15.6917H10.992C13.1087 15.6917 14.167 14.8 14.3253 12.9C14.3503 12.7 14.3587 12.5167 14.3587 12.325V8.99167C14.3587 6.66667 13.317 5.625 10.992 5.625H5.65867V5.625Z" fill="#57534E"/>
<path d="M8.32552 11.825C7.85885 11.825 7.49219 11.45 7.49219 10.9917C7.49219 10.5333 7.86719 10.1583 8.32552 10.1583C8.78385 10.1583 9.15885 10.5333 9.15885 10.9917C9.15885 11.45 8.79219 11.825 8.32552 11.825Z" fill="#57534E"/>
<path d="M10.9915 11.825C10.5249 11.825 10.1582 11.45 10.1582 10.9917C10.1582 10.5333 10.5332 10.1583 10.9915 10.1583C11.4499 10.1583 11.8249 10.5333 11.8249 10.9917C11.8249 11.45 11.4499 11.825 10.9915 11.825Z" fill="#57534E"/>
<path d="M5.66634 11.825C5.19967 11.825 4.83301 11.45 4.83301 10.9917C4.83301 10.5333 5.20801 10.1583 5.66634 10.1583C6.12467 10.1583 6.49967 10.5333 6.49967 10.9917C6.49967 11.45 6.12467 11.825 5.66634 11.825Z" fill="#57534E"/>
<path d="M14.9497 13.575C14.783 13.575 14.6164 13.5084 14.4997 13.3834C14.3664 13.25 14.308 13.0584 14.333 12.875C14.358 12.7 14.3664 12.5167 14.3664 12.325V8.99169C14.3664 6.66669 13.3247 5.62502 10.9997 5.62502H5.66636C5.47469 5.62502 5.29138 5.63335 5.11638 5.65002C4.93305 5.67502 4.74137 5.60834 4.60804 5.48334C4.4747 5.35001 4.39969 5.1667 4.41636 4.98336C4.56636 3.18336 5.49136 1.04169 8.99969 1.04169H14.333C17.3497 1.04169 18.9497 2.64169 18.9497 5.65836V8.99169C18.9497 12.5 16.808 13.4167 15.008 13.575C14.983 13.575 14.9664 13.575 14.9497 13.575ZM5.76638 4.37502H10.9914C14.008 4.37502 15.608 5.97503 15.608 8.99169V12.2167C17.0247 11.8667 17.6914 10.825 17.6914 8.99169V5.65836C17.6914 3.33336 16.6497 2.29169 14.3247 2.29169H8.99138C7.15805 2.29169 6.12472 2.95835 5.76638 4.37502Z" fill="#57534E"/>
</svg>
