<svg width="20" height="20" viewBox="0 0 20 20" fill="none" xmlns="http://www.w3.org/2000/svg">
<path d="M9.97493 18.9583C5.0416 18.9583 1.0166 14.9417 1.0166 10C1.0166 5.05833 5.0416 1.04166 9.97493 1.04166C14.9083 1.04166 18.9333 5.05833 18.9333 10C18.9333 14.9417 14.9166 18.9583 9.97493 18.9583ZM9.97493 2.29166C5.72493 2.29166 2.2666 5.75 2.2666 10C2.2666 14.25 5.72493 17.7083 9.97493 17.7083C14.2249 17.7083 17.6833 14.25 17.6833 10C17.6833 5.75 14.2249 2.29166 9.97493 2.29166Z" fill="#141210"/>
<path d="M8.79987 14.1583C8.4332 14.1583 8.0832 14.0667 7.77487 13.8917C7.0582 13.475 6.6582 12.6583 6.6582 11.5917V8.8C6.6582 7.73334 7.04987 6.91667 7.76654 6.5C8.4832 6.08334 9.39154 6.15 10.3165 6.68334L12.7332 8.075C13.6582 8.60833 14.1665 9.35833 14.1665 10.1917C14.1665 11.0167 13.6582 11.775 12.7332 12.3083L10.3165 13.7C9.79987 14.0083 9.27487 14.1583 8.79987 14.1583ZM8.79987 7.475C8.64987 7.475 8.5082 7.50834 8.39987 7.575C8.0832 7.75834 7.9082 8.2 7.9082 8.8V11.5917C7.9082 12.1833 8.0832 12.6333 8.39987 12.8083C8.7082 12.9917 9.1832 12.9167 9.69987 12.625L12.1165 11.2333C12.6332 10.9333 12.9249 10.5583 12.9249 10.2C12.9249 9.84167 12.6249 9.46667 12.1165 9.16667L9.69987 7.775C9.36654 7.575 9.0582 7.475 8.79987 7.475Z" fill="#141210"/>
</svg>
