<svg width="22" height="22" viewBox="0 0 22 22" fill="none" xmlns="http://www.w3.org/2000/svg">
<path d="M8.16739 18.9474C7.99322 18.9474 7.81905 18.8832 7.68155 18.7457C7.41572 18.4799 7.41572 18.0399 7.68155 17.7741L13.6582 11.7974C14.0982 11.3574 14.0982 10.6424 13.6582 10.2024L7.68155 4.22573C7.41572 3.9599 7.41572 3.5199 7.68155 3.25406C7.94739 2.98823 8.38739 2.98823 8.65322 3.25406L14.6299 9.23073C15.0974 9.69823 15.3632 10.3307 15.3632 10.9999C15.3632 11.6691 15.1066 12.3016 14.6299 12.7691L8.65322 18.7457C8.51572 18.8741 8.34155 18.9474 8.16739 18.9474Z" fill="#141210"/>
</svg>
