<svg width="48" height="30" viewBox="0 0 48 30" fill="none" xmlns="http://www.w3.org/2000/svg">
<path d="M9.13 23.924C8.8 22.032 7.458 19.656 4.906 17.742C3.652 16.796 2.376 16.18 1.122 15.916V14.992C3.608 14.398 6.05 12.726 7.612 10.46C8.404 9.316 8.91 8.194 9.13 7.028H10.054C10.428 9.25 12.144 11.714 14.476 13.364C15.62 14.178 16.808 14.728 18.018 14.992V15.916C15.576 16.422 12.738 18.6 11.33 20.822C10.626 21.944 10.208 22.978 10.054 23.924H9.13Z" fill="#701608"/>
<path d="M37.13 23.924C36.8 22.032 35.458 19.656 32.906 17.742C31.652 16.796 30.376 16.18 29.122 15.916V14.992C31.608 14.398 34.05 12.726 35.612 10.46C36.404 9.316 36.91 8.194 37.13 7.028H38.054C38.428 9.25 40.144 11.714 42.476 13.364C43.62 14.178 44.808 14.728 46.018 14.992V15.916C43.576 16.422 40.738 18.6 39.33 20.822C38.626 21.944 38.208 22.978 38.054 23.924H37.13Z" fill="#701608"/>
</svg>
