<svg width="16" height="16" viewBox="0 0 16 16" fill="none" xmlns="http://www.w3.org/2000/svg">
<path d="M11.7736 15.1132C11.4202 15.1132 10.9669 14.9999 10.4002 14.6665L8.40691 13.4865C8.20024 13.3665 7.80024 13.3665 7.60024 13.4865L5.60024 14.6665C4.42024 15.3666 3.72691 15.0866 3.41357 14.8599C3.10691 14.6332 2.62691 14.0532 2.94024 12.7199L3.41357 10.6732C3.46691 10.4599 3.36024 10.0932 3.20024 9.93322L1.54691 8.27988C0.720241 7.45322 0.786908 6.74655 0.900241 6.39988C1.01357 6.05322 1.37357 5.43988 2.52024 5.24655L4.64691 4.89322C4.84691 4.85988 5.13357 4.64655 5.22024 4.46655L6.40024 2.11322C6.93357 1.03988 7.63357 0.879883 8.00024 0.879883C8.36691 0.879883 9.06691 1.03988 9.60024 2.11322L10.7736 4.45988C10.8669 4.63988 11.1536 4.85322 11.3536 4.88655L13.4802 5.23988C14.6336 5.43322 14.9936 6.04655 15.1002 6.39322C15.2069 6.73988 15.2736 7.44655 14.4536 8.27322L12.8002 9.93322C12.6402 10.0932 12.5402 10.4532 12.5869 10.6732L13.0602 12.7199C13.3669 14.0532 12.8936 14.6332 12.5869 14.8599C12.4202 14.9799 12.1536 15.1132 11.7736 15.1132Z" fill="#F79009"/>
</svg>
