<svg width="77" height="30" viewBox="0 0 77 30" fill="none" xmlns="http://www.w3.org/2000/svg">
<path d="M9.79675 23.924C9.46675 22.032 8.12475 19.656 5.57275 17.742C4.31875 16.796 3.04275 16.18 1.78875 15.916V14.992C4.27475 14.398 6.71675 12.726 8.27875 10.46C9.07075 9.316 9.57675 8.194 9.79675 7.028H10.7207C11.0947 9.25 12.8107 11.714 15.1427 13.364C16.2867 14.178 17.4747 14.728 18.6847 14.992V15.916C16.2427 16.422 13.4047 18.6 11.9967 20.822C11.2927 21.944 10.8747 22.978 10.7207 23.924H9.79675Z" fill="#2B0C66"/>
<path d="M37.7967 23.924C37.4667 22.032 36.1247 19.656 33.5727 17.742C32.3187 16.796 31.0427 16.18 29.7887 15.916V14.992C32.2747 14.398 34.7167 12.726 36.2787 10.46C37.0707 9.316 37.5767 8.194 37.7967 7.028H38.7207C39.0947 9.25 40.8107 11.714 43.1427 13.364C44.2867 14.178 45.4747 14.728 46.6847 14.992V15.916C44.2427 16.422 41.4047 18.6 39.9967 20.822C39.2927 21.944 38.8747 22.978 38.7207 23.924H37.7967Z" fill="#2B0C66"/>
<path d="M65.7967 23.924C65.4667 22.032 64.1247 19.656 61.5727 17.742C60.3187 16.796 59.0427 16.18 57.7887 15.916V14.992C60.2747 14.398 62.7167 12.726 64.2787 10.46C65.0707 9.316 65.5767 8.194 65.7967 7.028H66.7207C67.0947 9.25 68.8107 11.714 71.1427 13.364C72.2867 14.178 73.4747 14.728 74.6847 14.992V15.916C72.2427 16.422 69.4047 18.6 67.9967 20.822C67.2927 21.944 66.8747 22.978 66.7207 23.924H65.7967Z" fill="#2B0C66"/>
</svg>
