<svg width="20" height="20" viewBox="0 0 20 20" fill="none" xmlns="http://www.w3.org/2000/svg">
<path d="M1.66678 18.9582C1.50012 18.9582 1.34176 18.8915 1.22509 18.7749C1.06676 18.6165 1.00013 18.3832 1.05846 18.1665L2.10847 14.2415C1.40847 12.9415 1.04178 11.4749 1.04178 9.99154C1.04178 5.04987 5.05845 1.0332 10.0001 1.0332C14.9418 1.0332 18.9584 5.04987 18.9584 9.99154C18.9584 14.9332 14.9418 18.9499 10.0001 18.9499C8.49178 18.9499 7.0168 18.5749 5.70014 17.8582L1.83346 18.9332C1.77513 18.9499 1.72512 18.9582 1.66678 18.9582ZM5.78345 16.5665C5.89178 16.5665 6.00012 16.5999 6.10012 16.6499C7.27512 17.3416 8.62511 17.7082 10.0001 17.7082C14.2501 17.7082 17.7084 14.2499 17.7084 9.99988C17.7084 5.74988 14.2501 2.29154 10.0001 2.29154C5.75011 2.29154 2.29178 5.74988 2.29178 9.99988C2.29178 11.3582 2.65011 12.6832 3.32511 13.8499C3.40844 13.9915 3.43345 14.1665 3.39179 14.3249L2.55845 17.4415L5.62511 16.5915C5.67511 16.5749 5.73345 16.5665 5.78345 16.5665Z" fill="#292524"/>
<path d="M12.2833 14.7999C11.7666 14.7999 11.2333 14.6832 10.675 14.4416C10.15 14.2166 9.62496 13.9166 9.11663 13.5416C8.61663 13.1749 8.12498 12.7582 7.67498 12.3082C7.22498 11.8499 6.80828 11.3666 6.44161 10.8666C6.06661 10.3416 5.7666 9.82491 5.54994 9.31657C5.3166 8.76657 5.19995 8.22491 5.19995 7.70825C5.19995 7.34158 5.2666 6.99158 5.3916 6.66658C5.52493 6.32491 5.74161 6.01657 6.02494 5.74991C6.55828 5.22491 7.32498 5.03326 7.93331 5.32493C8.14164 5.41659 8.31664 5.56659 8.44997 5.76659L9.41662 7.1249C9.51662 7.25824 9.59164 7.3999 9.64997 7.54157C9.71664 7.70824 9.75831 7.87493 9.75831 8.03326C9.75831 8.24993 9.69996 8.46659 9.58329 8.65826C9.50829 8.78326 9.39995 8.93326 9.25828 9.07492L9.14994 9.19158C9.19994 9.25824 9.25827 9.34157 9.34993 9.44157C9.52493 9.64157 9.7166 9.85823 9.92494 10.0666C10.1333 10.2666 10.3416 10.4666 10.5499 10.6416C10.6499 10.7249 10.7333 10.7916 10.8 10.8332L10.9166 10.7166C11.0666 10.5666 11.2166 10.4499 11.3666 10.3749C11.6416 10.1999 12.0666 10.1583 12.4416 10.3166C12.575 10.3666 12.7083 10.4416 12.8499 10.5416L14.2416 11.5249C14.4333 11.6582 14.5833 11.8416 14.6833 12.0499C14.7666 12.2582 14.8 12.4416 14.8 12.6332C14.8 12.8832 14.7416 13.1249 14.6333 13.3582C14.525 13.5749 14.3999 13.7666 14.2499 13.9416C13.9833 14.2333 13.675 14.4499 13.3416 14.5916C13.0083 14.7333 12.65 14.7999 12.2833 14.7999ZM7.32494 6.4499C7.27494 6.4499 7.10832 6.4499 6.89998 6.65824C6.74165 6.80824 6.63329 6.96659 6.55829 7.14159C6.48329 7.31659 6.44995 7.51659 6.44995 7.71659C6.44995 8.06659 6.53327 8.44157 6.69994 8.84157C6.87494 9.25823 7.13329 9.69992 7.44996 10.1416C7.77496 10.5833 8.14163 11.0249 8.54997 11.4332C8.9583 11.8332 9.39162 12.2082 9.84162 12.5416C10.275 12.8582 10.7166 13.1082 11.1583 13.2999C11.7916 13.5749 12.3749 13.6416 12.8499 13.4416C13.0166 13.3749 13.1666 13.2583 13.3166 13.1083C13.3916 13.0249 13.45 12.9416 13.5 12.8332C13.525 12.7749 13.5416 12.7082 13.5416 12.6499C13.5416 12.6332 13.5416 12.6083 13.5166 12.5583L12.1249 11.5916C12.0666 11.5499 12.0083 11.5166 11.9583 11.4999C11.9249 11.5166 11.875 11.5416 11.7833 11.6332L11.4666 11.9499C11.225 12.1916 10.8416 12.2582 10.5333 12.1499L10.3833 12.0832C10.1916 11.9832 9.97495 11.8333 9.73329 11.6249C9.49995 11.4249 9.27498 11.2166 9.03331 10.9832C8.79998 10.7416 8.59163 10.5166 8.39163 10.2832C8.17497 10.0249 8.02497 9.81659 7.92497 9.64159L7.83331 9.42491C7.80831 9.34158 7.79995 9.24991 7.79995 9.16658C7.79995 8.93325 7.88331 8.7249 8.04165 8.55824L8.35832 8.23325C8.44998 8.14158 8.4833 8.09159 8.49997 8.05826C8.47497 7.99992 8.44164 7.94991 8.39997 7.89158L7.42494 6.51659L7.32494 6.4499Z" fill="#292524"/>
</svg>
