<svg width="20" height="20" viewBox="0 0 20 20" fill="none" xmlns="http://www.w3.org/2000/svg">
<path d="M14.1667 17.2918H5.83342C2.96675 17.2918 1.04175 15.3668 1.04175 12.5002V7.50016C1.04175 4.6335 2.96675 2.7085 5.83342 2.7085H14.1667C17.0334 2.7085 18.9584 4.6335 18.9584 7.50016V12.5002C18.9584 15.3668 17.0334 17.2918 14.1667 17.2918ZM5.83342 3.9585C3.68341 3.9585 2.29175 5.35016 2.29175 7.50016V12.5002C2.29175 14.6502 3.68341 16.0418 5.83342 16.0418H14.1667C16.3167 16.0418 17.7084 14.6502 17.7084 12.5002V7.50016C17.7084 5.35016 16.3167 3.9585 14.1667 3.9585H5.83342Z" fill="#292524"/>
<path d="M8.82504 12.9417C8.58338 12.9417 8.35004 12.8834 8.1417 12.7667C7.65837 12.4917 7.375 11.9333 7.375 11.2417V8.77502C7.375 8.08335 7.65004 7.52503 8.1417 7.25003C8.62504 6.97503 9.25002 7.02501 9.84168 7.38334L11.9 8.61668C12.4667 8.95835 12.7917 9.46669 12.7917 10.0084C12.7917 10.55 12.4667 11.0583 11.9 11.4L9.84168 12.6334C9.50002 12.8334 9.15004 12.9417 8.82504 12.9417ZM8.82504 8.30835C8.79171 8.30835 8.76669 8.31668 8.75002 8.32501C8.69169 8.35835 8.625 8.50834 8.625 8.76668V11.2334C8.625 11.4834 8.69169 11.6334 8.75002 11.675C8.81669 11.7084 8.97504 11.6917 9.19171 11.5583L11.25 10.325C11.4584 10.2 11.5334 10.075 11.5334 10C11.5334 9.92502 11.4584 9.80834 11.25 9.67501L9.19171 8.44169C9.04171 8.35002 8.90838 8.30835 8.82504 8.30835Z" fill="#292524"/>
</svg>
